<svg width="294" height="475" viewBox="0 0 294 475" fill="none" xmlns="http://www.w3.org/2000/svg">
<g filter="url(#filter0_d_542_2)">
<mask id="mask0_542_2" style="mask-type:alpha" maskUnits="userSpaceOnUse" x="16" y="12" width="262" height="443">
<rect x="16" y="12" width="262" height="443" rx="31" fill="#E0E0E0"/>
</mask>
<g mask="url(#mask0_542_2)">
<rect width="354.283" height="526.894" transform="translate(-8.39648 3.81525)" fill="#B6174B"/>
<rect opacity="0.2" x="140.616" y="260.768" width="203.988" height="179.719" rx="10" transform="rotate(-20 140.616 260.768)" fill="white"/>
<rect opacity="0.1" x="118" y="313.939" width="206.632" height="213.704" rx="10" transform="rotate(-30 118 313.939)" fill="white"/>
</g>
</g>
<path d="M92.728 219.168H80.128L77.644 225H72.82L84.16 199.8H88.768L100.144 225H95.248L92.728 219.168ZM91.18 215.496L86.428 204.48L81.712 215.496H91.18ZM112.025 214.452L108.029 218.556V225H103.349V199.8H108.029V212.724L120.485 199.8H125.741L115.157 211.068L126.389 225H120.917L112.025 214.452ZM133.07 203.76H124.718V199.8H146.102V203.76H137.75V225H133.07V203.76ZM149.614 199.8H154.294V225H149.614V199.8ZM172.883 225.36C170.315 225.36 167.999 224.808 165.935 223.704C163.871 222.576 162.251 221.028 161.075 219.06C159.899 217.068 159.311 214.848 159.311 212.4C159.311 209.952 159.899 207.744 161.075 205.776C162.251 203.784 163.871 202.236 165.935 201.132C167.999 200.004 170.315 199.44 172.883 199.44C175.451 199.44 177.767 200.004 179.831 201.132C181.895 202.236 183.515 203.772 184.691 205.74C185.867 207.708 186.455 209.928 186.455 212.4C186.455 214.872 185.867 217.092 184.691 219.06C183.515 221.028 181.895 222.576 179.831 223.704C177.767 224.808 175.451 225.36 172.883 225.36ZM172.883 221.256C174.563 221.256 176.075 220.884 177.419 220.14C178.763 219.372 179.819 218.316 180.587 216.972C181.355 215.604 181.739 214.08 181.739 212.4C181.739 210.72 181.355 209.208 180.587 207.864C179.819 206.496 178.763 205.44 177.419 204.696C176.075 203.928 174.563 203.544 172.883 203.544C171.203 203.544 169.691 203.928 168.347 204.696C167.003 205.44 165.947 206.496 165.179 207.864C164.411 209.208 164.027 210.72 164.027 212.4C164.027 214.08 164.411 215.604 165.179 216.972C165.947 218.316 167.003 219.372 168.347 220.14C169.691 220.884 171.203 221.256 172.883 221.256ZM213.807 199.8V225H209.955L196.059 207.936V225H191.415V199.8H195.267L209.163 216.864V199.8H213.807Z" fill="white"/>
<defs>
<filter id="filter0_d_542_2" x="0" y="0" width="294" height="475" filterUnits="userSpaceOnUse" color-interpolation-filters="sRGB">
<feFlood flood-opacity="0" result="BackgroundImageFix"/>
<feColorMatrix in="SourceAlpha" type="matrix" values="0 0 0 0 0 0 0 0 0 0 0 0 0 0 0 0 0 0 127 0" result="hardAlpha"/>
<feOffset dy="4"/>
<feGaussianBlur stdDeviation="8"/>
<feColorMatrix type="matrix" values="0 0 0 0 0 0 0 0 0 0 0 0 0 0 0 0 0 0 0.08 0"/>
<feBlend mode="normal" in2="BackgroundImageFix" result="effect1_dropShadow_542_2"/>
<feBlend mode="normal" in="SourceGraphic" in2="effect1_dropShadow_542_2" result="shape"/>
</filter>
</defs>
</svg>
