<svg width="306" height="382" viewBox="0 0 306 382" fill="none" xmlns="http://www.w3.org/2000/svg">
<path d="M76.304 362.224H59.504L56.192 370H49.76L64.88 336.4H71.024L86.192 370H79.664L76.304 362.224ZM74.24 357.328L67.904 342.64L61.616 357.328H74.24ZM104.433 344.08C107.665 344.08 110.257 345.024 112.209 346.912C114.161 348.8 115.137 351.6 115.137 355.312V370H109.137V356.08C109.137 353.84 108.609 352.16 107.553 351.04C106.497 349.888 104.993 349.312 103.041 349.312C100.833 349.312 99.0891 349.984 97.8091 351.328C96.5291 352.64 95.8891 354.544 95.8891 357.04V370H89.8891V344.368H95.6011V347.68C96.5931 346.496 97.8411 345.6 99.3451 344.992C100.849 344.384 102.545 344.08 104.433 344.08ZM138.157 368.608C137.453 369.184 136.589 369.616 135.565 369.904C134.573 370.192 133.517 370.336 132.397 370.336C129.581 370.336 127.405 369.6 125.868 368.128C124.333 366.656 123.565 364.512 123.565 361.696V349.36H119.341V344.56H123.565V338.704H129.565V344.56H136.429V349.36H129.565V361.552C129.565 362.8 129.869 363.76 130.477 364.432C131.085 365.072 131.965 365.392 133.117 365.392C134.461 365.392 135.581 365.04 136.477 364.336L138.157 368.608ZM182.608 344.368L173.152 370H167.392L160.768 352.336L154.048 370H148.288L138.88 344.368H144.544L151.312 363.28L158.368 344.368H163.408L170.32 363.376L177.28 344.368H182.608ZM197.55 370.336C194.958 370.336 192.622 369.776 190.542 368.656C188.462 367.536 186.83 365.984 185.646 364C184.494 361.984 183.918 359.712 183.918 357.184C183.918 354.656 184.494 352.4 185.646 350.416C186.83 348.432 188.462 346.88 190.542 345.76C192.622 344.64 194.958 344.08 197.55 344.08C200.174 344.08 202.526 344.64 204.606 345.76C206.686 346.88 208.302 348.432 209.454 350.416C210.638 352.4 211.23 354.656 211.23 357.184C211.23 359.712 210.638 361.984 209.454 364C208.302 365.984 206.686 367.536 204.606 368.656C202.526 369.776 200.174 370.336 197.55 370.336ZM197.55 365.2C199.758 365.2 201.582 364.464 203.022 362.992C204.462 361.52 205.182 359.584 205.182 357.184C205.182 354.784 204.462 352.848 203.022 351.376C201.582 349.904 199.758 349.168 197.55 349.168C195.342 349.168 193.518 349.904 192.078 351.376C190.67 352.848 189.966 354.784 189.966 357.184C189.966 359.584 190.67 361.52 192.078 362.992C193.518 364.464 195.342 365.2 197.55 365.2ZM222.679 348.112C224.407 345.424 227.447 344.08 231.799 344.08V349.792C231.287 349.696 230.823 349.648 230.407 349.648C228.071 349.648 226.247 350.336 224.935 351.712C223.623 353.056 222.967 355.008 222.967 357.568V370H216.967V344.368H222.679V348.112ZM253.235 368.608C252.531 369.184 251.667 369.616 250.643 369.904C249.651 370.192 248.595 370.336 247.475 370.336C244.659 370.336 242.483 369.6 240.947 368.128C239.411 366.656 238.643 364.512 238.643 361.696V349.36H234.419V344.56H238.643V338.704H244.643V344.56H251.507V349.36H244.643V361.552C244.643 362.8 244.947 363.76 245.555 364.432C246.163 365.072 247.043 365.392 248.195 365.392C249.539 365.392 250.659 365.04 251.555 364.336L253.235 368.608Z" fill="black"/>
<circle cx="153" cy="153" r="149.5" fill="#D9D9D9" stroke="#008000" stroke-width="7"/>
<circle cx="153" cy="153" r="126" fill="white"/>
<circle cx="153" cy="153" r="126" stroke="black"/>
<path d="M130.41 171.36H171.81L182.16 72H120.06L130.41 171.36ZM151.11 235.3C169.05 235.3 181.47 222.88 181.47 207.7C181.47 192.29 169.05 180.56 151.11 180.56C133.17 180.56 120.75 192.29 120.75 207.7C120.75 222.88 133.17 235.3 151.11 235.3Z" fill="#008000"/>
</svg>
