<svg width="325" height="163" viewBox="0 0 325 163" fill="none" xmlns="http://www.w3.org/2000/svg">
<rect width="325" height="163" rx="26" fill="#9E1800"/>
<path d="M112.656 93V70.6H117.84V88.776H129.072V93H112.656ZM140.098 93.256C138.135 93.256 136.407 92.872 134.914 92.104C133.442 91.336 132.301 90.2907 131.49 88.968C130.679 87.624 130.274 86.0987 130.274 84.392C130.274 82.664 130.669 81.1387 131.458 79.816C132.269 78.472 133.367 77.4267 134.754 76.68C136.141 75.912 137.709 75.528 139.458 75.528C141.143 75.528 142.658 75.8907 144.002 76.616C145.367 77.32 146.445 78.344 147.234 79.688C148.023 81.0107 148.418 82.6 148.418 84.456C148.418 84.648 148.407 84.872 148.386 85.128C148.365 85.3627 148.343 85.5867 148.322 85.8H134.338V82.888H145.698L143.778 83.752C143.778 82.856 143.597 82.0773 143.234 81.416C142.871 80.7547 142.37 80.2427 141.73 79.88C141.09 79.496 140.343 79.304 139.49 79.304C138.637 79.304 137.879 79.496 137.218 79.88C136.578 80.2427 136.077 80.7653 135.714 81.448C135.351 82.1093 135.17 82.8987 135.17 83.816V84.584C135.17 85.5227 135.373 86.3547 135.778 87.08C136.205 87.784 136.791 88.328 137.538 88.712C138.306 89.0747 139.202 89.256 140.226 89.256C141.143 89.256 141.943 89.1173 142.626 88.84C143.33 88.5627 143.97 88.1467 144.546 87.592L147.202 90.472C146.413 91.368 145.421 92.0613 144.226 92.552C143.031 93.0213 141.655 93.256 140.098 93.256ZM151.742 93V75.784H156.734V93H151.742ZM154.238 73.384C153.32 73.384 152.574 73.1173 151.998 72.584C151.422 72.0507 151.134 71.3893 151.134 70.6C151.134 69.8107 151.422 69.1493 151.998 68.616C152.574 68.0827 153.32 67.816 154.238 67.816C155.155 67.816 155.902 68.072 156.478 68.584C157.054 69.0747 157.342 69.7147 157.342 70.504C157.342 71.336 157.054 72.0293 156.478 72.584C155.923 73.1173 155.176 73.384 154.238 73.384ZM169.687 93.256C167.831 93.256 166.177 92.8827 164.727 92.136C163.276 91.368 162.135 90.312 161.303 88.968C160.492 87.624 160.087 86.0987 160.087 84.392C160.087 82.664 160.492 81.1387 161.303 79.816C162.135 78.472 163.276 77.4267 164.727 76.68C166.177 75.912 167.831 75.528 169.687 75.528C171.5 75.528 173.079 75.912 174.423 76.68C175.767 77.4267 176.759 78.504 177.399 79.912L173.527 81.992C173.079 81.1813 172.513 80.584 171.831 80.2C171.169 79.816 170.444 79.624 169.655 79.624C168.801 79.624 168.033 79.816 167.351 80.2C166.668 80.584 166.124 81.128 165.719 81.832C165.335 82.536 165.143 83.3893 165.143 84.392C165.143 85.3947 165.335 86.248 165.719 86.952C166.124 87.656 166.668 88.2 167.351 88.584C168.033 88.968 168.801 89.16 169.655 89.16C170.444 89.16 171.169 88.9787 171.831 88.616C172.513 88.232 173.079 87.624 173.527 86.792L177.399 88.904C176.759 90.2907 175.767 91.368 174.423 92.136C173.079 92.8827 171.5 93.256 169.687 93.256ZM190.643 75.528C192.008 75.528 193.224 75.8053 194.291 76.36C195.379 76.8933 196.232 77.7253 196.851 78.856C197.47 79.9653 197.779 81.3947 197.779 83.144V93H192.787V83.912C192.787 82.5253 192.478 81.5013 191.859 80.84C191.262 80.1787 190.408 79.848 189.299 79.848C188.51 79.848 187.795 80.0187 187.155 80.36C186.536 80.68 186.046 81.1813 185.683 81.864C185.342 82.5467 185.171 83.4213 185.171 84.488V93H180.179V69.256H185.171V80.552L184.051 79.112C184.67 77.96 185.555 77.0747 186.707 76.456C187.859 75.8373 189.171 75.528 190.643 75.528ZM209.344 93.256C207.317 93.256 205.739 92.744 204.608 91.72C203.477 90.6747 202.912 89.128 202.912 87.08V71.976H207.904V87.016C207.904 87.7413 208.096 88.3067 208.48 88.712C208.864 89.096 209.387 89.288 210.048 89.288C210.837 89.288 211.509 89.0747 212.064 88.648L213.408 92.168C212.896 92.5307 212.277 92.808 211.552 93C210.848 93.1707 210.112 93.256 209.344 93.256ZM200.256 80.008V76.168H212.192V80.008H200.256Z" fill="white"/>
</svg>
