<svg width="325" height="163" viewBox="0 0 325 163" fill="none" xmlns="http://www.w3.org/2000/svg">
<rect width="325" height="163" rx="26" fill="#1A0400"/>
<path d="M110.016 93.384C108.224 93.384 106.507 93.1493 104.864 92.68C103.221 92.1893 101.899 91.56 100.896 90.792L102.656 86.888C103.616 87.5707 104.747 88.136 106.048 88.584C107.371 89.0107 108.704 89.224 110.048 89.224C111.072 89.224 111.893 89.128 112.512 88.936C113.152 88.7227 113.621 88.4347 113.92 88.072C114.219 87.7093 114.368 87.2933 114.368 86.824C114.368 86.2267 114.133 85.7573 113.664 85.416C113.195 85.0533 112.576 84.7653 111.808 84.552C111.04 84.3173 110.187 84.104 109.248 83.912C108.331 83.6987 107.403 83.4427 106.464 83.144C105.547 82.8453 104.704 82.4613 103.936 81.992C103.168 81.5227 102.539 80.904 102.048 80.136C101.579 79.368 101.344 78.3867 101.344 77.192C101.344 75.912 101.685 74.7493 102.368 73.704C103.072 72.6373 104.117 71.7947 105.504 71.176C106.912 70.536 108.672 70.216 110.784 70.216C112.192 70.216 113.579 70.3867 114.944 70.728C116.309 71.048 117.515 71.5387 118.56 72.2L116.96 76.136C115.915 75.5387 114.869 75.1013 113.824 74.824C112.779 74.5253 111.755 74.376 110.752 74.376C109.749 74.376 108.928 74.4933 108.288 74.728C107.648 74.9627 107.189 75.272 106.912 75.656C106.635 76.0187 106.496 76.4453 106.496 76.936C106.496 77.512 106.731 77.9813 107.2 78.344C107.669 78.6853 108.288 78.9627 109.056 79.176C109.824 79.3893 110.667 79.6027 111.584 79.816C112.523 80.0293 113.451 80.2747 114.368 80.552C115.307 80.8293 116.16 81.2027 116.928 81.672C117.696 82.1413 118.315 82.76 118.784 83.528C119.275 84.296 119.52 85.2667 119.52 86.44C119.52 87.6987 119.168 88.8507 118.464 89.896C117.76 90.9413 116.704 91.784 115.296 92.424C113.909 93.064 112.149 93.384 110.016 93.384ZM131.03 93.256C129.174 93.256 127.521 92.8827 126.07 92.136C124.62 91.368 123.478 90.312 122.646 88.968C121.836 87.624 121.43 86.0987 121.43 84.392C121.43 82.664 121.836 81.1387 122.646 79.816C123.478 78.472 124.62 77.4267 126.07 76.68C127.521 75.912 129.174 75.528 131.03 75.528C132.844 75.528 134.422 75.912 135.766 76.68C137.11 77.4267 138.102 78.504 138.742 79.912L134.87 81.992C134.422 81.1813 133.857 80.584 133.174 80.2C132.513 79.816 131.788 79.624 130.998 79.624C130.145 79.624 129.377 79.816 128.694 80.2C128.012 80.584 127.468 81.128 127.062 81.832C126.678 82.536 126.486 83.3893 126.486 84.392C126.486 85.3947 126.678 86.248 127.062 86.952C127.468 87.656 128.012 88.2 128.694 88.584C129.377 88.968 130.145 89.16 130.998 89.16C131.788 89.16 132.513 88.9787 133.174 88.616C133.857 88.232 134.422 87.624 134.87 86.792L138.742 88.904C138.102 90.2907 137.11 91.368 135.766 92.136C134.422 92.8827 132.844 93.256 131.03 93.256ZM151.987 75.528C153.352 75.528 154.568 75.8053 155.635 76.36C156.723 76.8933 157.576 77.7253 158.195 78.856C158.813 79.9653 159.123 81.3947 159.123 83.144V93H154.131V83.912C154.131 82.5253 153.821 81.5013 153.203 80.84C152.605 80.1787 151.752 79.848 150.643 79.848C149.853 79.848 149.139 80.0187 148.499 80.36C147.88 80.68 147.389 81.1813 147.027 81.864C146.685 82.5467 146.515 83.4213 146.515 84.488V93H141.523V69.256H146.515V80.552L145.395 79.112C146.013 77.96 146.899 77.0747 148.051 76.456C149.203 75.8373 150.515 75.528 151.987 75.528ZM167.271 93L161.063 75.784H165.767L170.919 90.6H168.679L174.055 75.784H178.279L183.495 90.6H181.255L186.567 75.784H190.983L184.743 93H179.911L175.335 80.296H176.807L172.071 93H167.271ZM201.379 93.256C199.417 93.256 197.689 92.872 196.195 92.104C194.723 91.336 193.582 90.2907 192.771 88.968C191.961 87.624 191.555 86.0987 191.555 84.392C191.555 82.664 191.95 81.1387 192.739 79.816C193.55 78.472 194.649 77.4267 196.035 76.68C197.422 75.912 198.99 75.528 200.739 75.528C202.425 75.528 203.939 75.8907 205.283 76.616C206.649 77.32 207.726 78.344 208.515 79.688C209.305 81.0107 209.699 82.6 209.699 84.456C209.699 84.648 209.689 84.872 209.667 85.128C209.646 85.3627 209.625 85.5867 209.603 85.8H195.619V82.888H206.979L205.059 83.752C205.059 82.856 204.878 82.0773 204.515 81.416C204.153 80.7547 203.651 80.2427 203.011 79.88C202.371 79.496 201.625 79.304 200.771 79.304C199.918 79.304 199.161 79.496 198.499 79.88C197.859 80.2427 197.358 80.7653 196.995 81.448C196.633 82.1093 196.451 82.8987 196.451 83.816V84.584C196.451 85.5227 196.654 86.3547 197.059 87.08C197.486 87.784 198.073 88.328 198.819 88.712C199.587 89.0747 200.483 89.256 201.507 89.256C202.425 89.256 203.225 89.1173 203.907 88.84C204.611 88.5627 205.251 88.1467 205.827 87.592L208.483 90.472C207.694 91.368 206.702 92.0613 205.507 92.552C204.313 93.0213 202.937 93.256 201.379 93.256ZM213.023 93V75.784H217.791V80.648L217.119 79.24C217.631 78.024 218.452 77.1067 219.583 76.488C220.713 75.848 222.089 75.528 223.711 75.528V80.136C223.497 80.1147 223.305 80.104 223.135 80.104C222.964 80.0827 222.783 80.072 222.591 80.072C221.225 80.072 220.116 80.4667 219.263 81.256C218.431 82.024 218.015 83.2293 218.015 84.872V93H213.023Z" fill="white"/>
</svg>
