<svg width="296" height="475" viewBox="0 0 296 475" fill="none" xmlns="http://www.w3.org/2000/svg">
<g filter="url(#filter0_d_542_3)">
<mask id="mask0_542_3" style="mask-type:alpha" maskUnits="userSpaceOnUse" x="16" y="12" width="264" height="443">
<rect x="16" y="12" width="264" height="443" rx="33" fill="#E0E0E0"/>
</mask>
<g mask="url(#mask0_542_3)">
<rect width="274" height="443" transform="translate(13 12)" fill="#5732D2"/>
<ellipse opacity="0.2" cx="245.215" cy="333.902" rx="160.975" ry="192.486" fill="url(#paint0_radial_542_3)"/>
<ellipse opacity="0.3" cx="15.7348" cy="145.146" rx="160.975" ry="192.486" fill="url(#paint1_radial_542_3)"/>
</g>
</g>
<path d="M113.212 199.8L104.86 225H99.892L93.664 206.352L87.328 225H82.324L73.972 199.8H78.832L85.096 218.952L91.612 199.8H95.932L102.304 219.06L108.748 199.8H113.212ZM117.025 199.8H121.705V225H117.025V199.8ZM136.333 225.36C134.389 225.36 132.505 225.084 130.681 224.532C128.881 223.98 127.453 223.248 126.397 222.336L128.017 218.7C129.049 219.516 130.309 220.188 131.797 220.716C133.309 221.22 134.821 221.472 136.333 221.472C138.205 221.472 139.597 221.172 140.509 220.572C141.445 219.972 141.913 219.18 141.913 218.196C141.913 217.476 141.649 216.888 141.121 216.432C140.617 215.952 139.969 215.58 139.177 215.316C138.385 215.052 137.305 214.752 135.937 214.416C134.017 213.96 132.457 213.504 131.257 213.048C130.081 212.592 129.061 211.884 128.197 210.924C127.357 209.94 126.937 208.62 126.937 206.964C126.937 205.572 127.309 204.312 128.053 203.184C128.821 202.032 129.961 201.12 131.473 200.448C133.009 199.776 134.881 199.44 137.089 199.44C138.625 199.44 140.137 199.632 141.625 200.016C143.113 200.4 144.397 200.952 145.477 201.672L144.001 205.308C142.897 204.66 141.745 204.168 140.545 203.832C139.345 203.496 138.181 203.328 137.053 203.328C135.205 203.328 133.825 203.64 132.913 204.264C132.025 204.888 131.581 205.716 131.581 206.748C131.581 207.468 131.833 208.056 132.337 208.512C132.865 208.968 133.525 209.328 134.317 209.592C135.109 209.856 136.189 210.156 137.557 210.492C139.429 210.924 140.965 211.38 142.165 211.86C143.365 212.316 144.385 213.024 145.225 213.984C146.089 214.944 146.521 216.24 146.521 217.872C146.521 219.264 146.137 220.524 145.369 221.652C144.625 222.78 143.485 223.68 141.949 224.352C140.413 225.024 138.541 225.36 136.333 225.36ZM158.973 225.36C157.029 225.36 155.145 225.084 153.321 224.532C151.521 223.98 150.093 223.248 149.037 222.336L150.657 218.7C151.689 219.516 152.949 220.188 154.437 220.716C155.949 221.22 157.461 221.472 158.973 221.472C160.845 221.472 162.237 221.172 163.149 220.572C164.085 219.972 164.553 219.18 164.553 218.196C164.553 217.476 164.289 216.888 163.761 216.432C163.257 215.952 162.609 215.58 161.817 215.316C161.025 215.052 159.945 214.752 158.577 214.416C156.657 213.96 155.097 213.504 153.897 213.048C152.721 212.592 151.701 211.884 150.837 210.924C149.997 209.94 149.577 208.62 149.577 206.964C149.577 205.572 149.949 204.312 150.693 203.184C151.461 202.032 152.601 201.12 154.113 200.448C155.649 199.776 157.521 199.44 159.729 199.44C161.265 199.44 162.777 199.632 164.265 200.016C165.753 200.4 167.037 200.952 168.117 201.672L166.641 205.308C165.537 204.66 164.385 204.168 163.185 203.832C161.985 203.496 160.821 203.328 159.693 203.328C157.845 203.328 156.465 203.64 155.553 204.264C154.665 204.888 154.221 205.716 154.221 206.748C154.221 207.468 154.473 208.056 154.977 208.512C155.505 208.968 156.165 209.328 156.957 209.592C157.749 209.856 158.829 210.156 160.197 210.492C162.069 210.924 163.605 211.38 164.805 211.86C166.005 212.316 167.025 213.024 167.865 213.984C168.729 214.944 169.161 216.24 169.161 217.872C169.161 219.264 168.777 220.524 168.009 221.652C167.265 222.78 166.125 223.68 164.589 224.352C163.053 225.024 161.181 225.36 158.973 225.36ZM192.702 221.076V225H173.802V199.8H192.198V203.724H178.482V210.276H190.65V214.128H178.482V221.076H192.702ZM220.311 199.8V225H216.459L202.563 207.936V225H197.919V199.8H201.771L215.667 216.864V199.8H220.311Z" fill="white"/>
<defs>
<filter id="filter0_d_542_3" x="0" y="0" width="296" height="475" filterUnits="userSpaceOnUse" color-interpolation-filters="sRGB">
<feFlood flood-opacity="0" result="BackgroundImageFix"/>
<feColorMatrix in="SourceAlpha" type="matrix" values="0 0 0 0 0 0 0 0 0 0 0 0 0 0 0 0 0 0 127 0" result="hardAlpha"/>
<feOffset dy="4"/>
<feGaussianBlur stdDeviation="8"/>
<feColorMatrix type="matrix" values="0 0 0 0 0 0 0 0 0 0 0 0 0 0 0 0 0 0 0.08 0"/>
<feBlend mode="normal" in2="BackgroundImageFix" result="effect1_dropShadow_542_3"/>
<feBlend mode="normal" in="SourceGraphic" in2="effect1_dropShadow_542_3" result="shape"/>
</filter>
<radialGradient id="paint0_radial_542_3" cx="0" cy="0" r="1" gradientUnits="userSpaceOnUse" gradientTransform="translate(130.82 206.124) rotate(68.8047) scale(314.509 277.8)">
<stop offset="0.520733" stop-color="white"/>
<stop offset="1" stop-color="white" stop-opacity="0"/>
</radialGradient>
<radialGradient id="paint1_radial_542_3" cx="0" cy="0" r="1" gradientUnits="userSpaceOnUse" gradientTransform="translate(-98.6602 17.3685) rotate(68.8047) scale(314.509 277.8)">
<stop offset="0.520733" stop-color="white"/>
<stop offset="1" stop-color="white" stop-opacity="0"/>
</radialGradient>
</defs>
</svg>
