<svg width="325" height="163" viewBox="0 0 325 163" fill="none" xmlns="http://www.w3.org/2000/svg">
<rect width="325" height="163" rx="26" fill="#520C00"/>
<path d="M116.656 93V70.6H120.944L130.48 86.408H128.208L137.584 70.6H141.84L141.904 93H137.04L137.008 78.056H137.904L130.416 90.632H128.08L120.432 78.056H121.52V93H116.656ZM146.867 93V75.784H151.859V93H146.867ZM149.363 73.384C148.445 73.384 147.699 73.1173 147.123 72.584C146.547 72.0507 146.259 71.3893 146.259 70.6C146.259 69.8107 146.547 69.1493 147.123 68.616C147.699 68.0827 148.445 67.816 149.363 67.816C150.28 67.816 151.027 68.072 151.603 68.584C152.179 69.0747 152.467 69.7147 152.467 70.504C152.467 71.336 152.179 72.0293 151.603 72.584C151.048 73.1173 150.301 73.384 149.363 73.384ZM163.532 93.256C161.505 93.256 159.926 92.744 158.796 91.72C157.665 90.6747 157.1 89.128 157.1 87.08V71.976H162.092V87.016C162.092 87.7413 162.284 88.3067 162.668 88.712C163.052 89.096 163.574 89.288 164.236 89.288C165.025 89.288 165.697 89.0747 166.252 88.648L167.596 92.168C167.084 92.5307 166.465 92.808 165.74 93C165.036 93.1707 164.3 93.256 163.532 93.256ZM154.444 80.008V76.168H166.38V80.008H154.444ZM177.063 93.256C175.036 93.256 173.457 92.744 172.327 91.72C171.196 90.6747 170.631 89.128 170.631 87.08V71.976H175.623V87.016C175.623 87.7413 175.815 88.3067 176.199 88.712C176.583 89.096 177.105 89.288 177.767 89.288C178.556 89.288 179.228 89.0747 179.783 88.648L181.127 92.168C180.615 92.5307 179.996 92.808 179.271 93C178.567 93.1707 177.831 93.256 177.063 93.256ZM167.975 80.008V76.168H179.911V80.008H167.975ZM191.942 93.256C189.979 93.256 188.251 92.872 186.758 92.104C185.286 91.336 184.144 90.2907 183.334 88.968C182.523 87.624 182.118 86.0987 182.118 84.392C182.118 82.664 182.512 81.1387 183.302 79.816C184.112 78.472 185.211 77.4267 186.598 76.68C187.984 75.912 189.552 75.528 191.302 75.528C192.987 75.528 194.502 75.8907 195.846 76.616C197.211 77.32 198.288 78.344 199.078 79.688C199.867 81.0107 200.262 82.6 200.262 84.456C200.262 84.648 200.251 84.872 200.23 85.128C200.208 85.3627 200.187 85.5867 200.166 85.8H186.182V82.888H197.542L195.622 83.752C195.622 82.856 195.44 82.0773 195.078 81.416C194.715 80.7547 194.214 80.2427 193.574 79.88C192.934 79.496 192.187 79.304 191.334 79.304C190.48 79.304 189.723 79.496 189.062 79.88C188.422 80.2427 187.92 80.7653 187.558 81.448C187.195 82.1093 187.014 82.8987 187.014 83.816V84.584C187.014 85.5227 187.216 86.3547 187.622 87.08C188.048 87.784 188.635 88.328 189.382 88.712C190.15 89.0747 191.046 89.256 192.07 89.256C192.987 89.256 193.787 89.1173 194.47 88.84C195.174 88.5627 195.814 88.1467 196.39 87.592L199.046 90.472C198.256 91.368 197.264 92.0613 196.07 92.552C194.875 93.0213 193.499 93.256 191.942 93.256ZM203.585 93V69.256H208.577V93H203.585Z" fill="white"/>
</svg>
