<svg width="293" height="475" viewBox="0 0 293 475" fill="none" xmlns="http://www.w3.org/2000/svg">
<g filter="url(#filter0_d_542_4)">
<mask id="mask0_542_4" style="mask-type:alpha" maskUnits="userSpaceOnUse" x="16" y="12" width="261" height="443">
<rect x="16" y="12" width="261" height="443" rx="31" fill="#D9DEE3"/>
</mask>
<g mask="url(#mask0_542_4)">
<rect width="285" height="451" transform="translate(9 4)" fill="#216354"/>
<rect opacity="0.1" x="177" y="65" width="41" height="68" rx="6" fill="#216354"/>
<rect opacity="0.3" x="229" y="78" width="14" height="69" rx="3" fill="white" fill-opacity="0.5"/>
<rect opacity="0.7" x="254" y="51" width="14" height="69" rx="3" fill="white" fill-opacity="0.5"/>
<rect opacity="0.3" x="36" y="357" width="14" height="69" rx="3" fill="white" fill-opacity="0.5"/>
<rect opacity="0.7" x="61" y="330" width="14" height="69" rx="3" fill="white" fill-opacity="0.5"/>
</g>
</g>
<path d="M79.196 225.36C77.228 225.36 75.344 225.084 73.544 224.532C71.744 223.956 70.316 223.224 69.26 222.336L70.88 218.7C71.888 219.492 73.136 220.152 74.624 220.68C76.112 221.208 77.636 221.472 79.196 221.472C80.516 221.472 81.584 221.328 82.4 221.04C83.216 220.752 83.816 220.368 84.2 219.888C84.584 219.384 84.776 218.82 84.776 218.196C84.776 217.428 84.5 216.816 83.948 216.36C83.396 215.88 82.676 215.508 81.788 215.244C80.924 214.956 79.952 214.692 78.872 214.452C77.816 214.212 76.748 213.936 75.668 213.624C74.612 213.288 73.64 212.868 72.752 212.364C71.888 211.836 71.18 211.14 70.628 210.276C70.076 209.412 69.8 208.308 69.8 206.964C69.8 205.596 70.16 204.348 70.88 203.22C71.624 202.068 72.74 201.156 74.228 200.484C75.74 199.788 77.648 199.44 79.952 199.44C81.464 199.44 82.964 199.632 84.452 200.016C85.94 200.4 87.236 200.952 88.34 201.672L86.864 205.308C85.736 204.636 84.572 204.144 83.372 203.832C82.172 203.496 81.02 203.328 79.916 203.328C78.62 203.328 77.564 203.484 76.748 203.796C75.956 204.108 75.368 204.516 74.984 205.02C74.624 205.524 74.444 206.1 74.444 206.748C74.444 207.516 74.708 208.14 75.236 208.62C75.788 209.076 76.496 209.436 77.36 209.7C78.248 209.964 79.232 210.228 80.312 210.492C81.392 210.732 82.46 211.008 83.516 211.32C84.596 211.632 85.568 212.04 86.432 212.544C87.32 213.048 88.028 213.732 88.556 214.596C89.108 215.46 89.384 216.552 89.384 217.872C89.384 219.216 89.012 220.464 88.268 221.616C87.548 222.744 86.432 223.656 84.92 224.352C83.408 225.024 81.5 225.36 79.196 225.36ZM94.0246 225V199.8H104.393C106.625 199.8 108.533 200.16 110.117 200.88C111.725 201.6 112.961 202.632 113.825 203.976C114.689 205.32 115.121 206.916 115.121 208.764C115.121 210.612 114.689 212.208 113.825 213.552C112.961 214.896 111.725 215.928 110.117 216.648C108.533 217.368 106.625 217.728 104.393 217.728H96.6166L98.7046 215.532V225H94.0246ZM98.7046 216.036L96.6166 213.768H104.177C106.241 213.768 107.789 213.336 108.821 212.472C109.877 211.584 110.405 210.348 110.405 208.764C110.405 207.156 109.877 205.92 108.821 205.056C107.789 204.192 106.241 203.76 104.177 203.76H96.6166L98.7046 201.456V216.036ZM124.114 210.276H136.642V214.128H124.114V210.276ZM124.474 221.076H138.694V225H119.794V199.8H138.19V203.724H124.474V221.076ZM142.003 225V221.868L158.275 201.996L158.815 203.76H142.255V199.8H163.027V202.932L146.755 222.804L146.179 221.04H163.495V225H142.003ZM167.782 225V199.8H172.462V225H167.782ZM175.715 225L187.055 199.8H191.663L203.039 225H198.143L188.387 202.284H190.259L180.539 225H175.715ZM180.935 219.168L182.195 215.496H195.803L197.063 219.168H180.935ZM206.243 225V199.8H210.923V221.04H224.099V225H206.243Z" fill="white"/>
<defs>
<filter id="filter0_d_542_4" x="0" y="0" width="293" height="475" filterUnits="userSpaceOnUse" color-interpolation-filters="sRGB">
<feFlood flood-opacity="0" result="BackgroundImageFix"/>
<feColorMatrix in="SourceAlpha" type="matrix" values="0 0 0 0 0 0 0 0 0 0 0 0 0 0 0 0 0 0 127 0" result="hardAlpha"/>
<feOffset dy="4"/>
<feGaussianBlur stdDeviation="8"/>
<feColorMatrix type="matrix" values="0 0 0 0 0 0 0 0 0 0 0 0 0 0 0 0 0 0 0.08 0"/>
<feBlend mode="normal" in2="BackgroundImageFix" result="effect1_dropShadow_542_4"/>
<feBlend mode="normal" in="SourceGraphic" in2="effect1_dropShadow_542_4" result="shape"/>
</filter>
</defs>
</svg>
